<svg aria-hidden="true" style="position: absolute; width: 0; height: 0; overflow: hidden;" version="1.1" xmlns="http://www.w3.org/2000/svg" xmlns:xlink="http://www.w3.org/1999/xlink">
<defs>
<symbol id="arrow" viewBox="0 0 32 32">
<path d="M24 3.602v-3.264c0-0.283-0.259-0.439-0.434-0.266l-15.153 14.866c-0.129 0.126-0.233 0.287-0.305 0.471s-0.109 0.386-0.109 0.591c0 0.205 0.037 0.407 0.109 0.591s0.176 0.345 0.305 0.471l15.153 14.866c0.178 0.173 0.434 0.017 0.434-0.266v-3.264c0-0.207-0.077-0.405-0.205-0.532l-12.101-11.864 12.101-11.868c0.128-0.127 0.205-0.325 0.205-0.532z"></path>
</symbol>
<symbol id="arrow_r_b" viewBox="0 0 32 32">
<path d="M23.586 14.936l-15.153-14.864c-0.040-0.039-0.087-0.063-0.137-0.070s-0.101 0.004-0.146 0.032c-0.045 0.028-0.083 0.071-0.11 0.125s-0.041 0.116-0.040 0.179v3.263c0 0.207 0.077 0.405 0.205 0.532l12.101 11.867-12.101 11.867c-0.131 0.127-0.205 0.325-0.205 0.532v3.263c0 0.283 0.259 0.439 0.434 0.266l15.153-14.864c0.129-0.126 0.233-0.288 0.305-0.472s0.109-0.387 0.109-0.592-0.037-0.408-0.109-0.592c-0.072-0.184-0.176-0.346-0.305-0.472z"></path>
</symbol>
<symbol id="email" viewBox="0 0 32 32">
<path d="M27.071 6h-24.143c-0.514 0-0.929 0.406-0.929 0.909v18.182c0 0.503 0.415 0.909 0.929 0.909h24.143c0.514 0 0.929-0.406 0.929-0.909v-18.182c0-0.503-0.415-0.909-0.929-0.909zM25.911 9.148v14.807h-21.822v-14.807l-0.801-0.611 1.14-1.435 1.242 0.946h18.661l1.242-0.946 1.14 1.435-0.804 0.611zM24.332 8.045l-9.332 7.102-10.574-8.048-1.14 1.435 0.801 0.611 9.912 7.545c0.285 0.217 0.636 0.335 0.997 0.335s0.712-0.118 0.997-0.335l10.719-8.153-1.14-1.435-1.239 0.943z"></path>
</symbol>
<symbol id="heart" viewBox="0 0 32 32">
<path stroke-linejoin="round" stroke-linecap="round" stroke-miterlimit="4" d="M16 27c0 0-12.5-7-12.5-15.5 0-1.503 0.521-2.959 1.473-4.121s2.279-1.958 3.752-2.253c1.473-0.295 3.004-0.070 4.33 0.636s2.367 1.85 2.945 3.237c0.578-1.387 1.619-2.531 2.945-3.237s2.856-0.931 4.33-0.636 2.799 1.091 3.752 2.253c0.953 1.162 1.473 2.618 1.473 4.121 0 8.5-12.5 15.5-12.5 15.5z"></path>
</symbol>
<symbol id="user" viewBox="0 0 32 32">
<path stroke-linejoin="miter" stroke-linecap="round" stroke-miterlimit="4" d="M16.558 15.111c2.945 0 5.333-2.388 5.333-5.333s-2.388-5.333-5.333-5.333-5.333 2.388-5.333 5.333c0 2.946 2.388 5.333 5.333 5.333z"></path>
<path stroke-linejoin="miter" stroke-linecap="round" stroke-miterlimit="4" d="M5.782 22.886c0.953-3.474 4.57-5.108 8.194-5.108h4.936c3.623 0 7.241 1.634 8.195 5.108 0.208 0.754 0.355 1.523 0.44 2.301 0.089 0.815-0.587 1.48-1.411 1.48h-19.385c-0.823 0-1.499-0.667-1.411-1.479 0.085-0.778 0.233-1.548 0.441-2.302z"></path>
</symbol>
<symbol id="inst" viewBox="0 0 32 32">
<path d="M23.091 0.103c1.624 0.075 2.747 0.313 3.784 0.716 0.983 0.369 1.873 0.949 2.608 1.699 0.75 0.735 1.329 1.625 1.699 2.608 0.403 1.039 0.641 2.16 0.716 3.784 0.092 2.013 0.103 2.723 0.103 7.091s-0.011 5.077-0.103 7.091c-0.075 1.624-0.313 2.747-0.716 3.785-0.369 0.982-0.949 1.872-1.699 2.607-0.735 0.75-1.625 1.329-2.608 1.699-1.039 0.403-2.16 0.641-3.784 0.716-2.013 0.092-2.721 0.103-7.091 0.103s-5.079-0.011-7.091-0.103c-1.624-0.075-2.747-0.313-3.785-0.716-0.982-0.369-1.872-0.949-2.607-1.699-0.75-0.735-1.329-1.625-1.699-2.608-0.403-1.039-0.641-2.16-0.716-3.784-0.092-2.011-0.103-2.72-0.103-7.091s0.011-5.080 0.103-7.091c0.075-1.624 0.313-2.747 0.716-3.784 0.369-0.983 0.949-1.873 1.699-2.608 0.735-0.749 1.624-1.329 2.607-1.699 1.040-0.403 2.161-0.641 3.785-0.716 2.011-0.092 2.72-0.103 7.091-0.103s5.080 0.011 7.091 0.103zM16 3.556c-4.32 0-4.981 0.009-6.929 0.099-1.236 0.056-1.977 0.213-2.659 0.479-0.58 0.227-0.949 0.467-1.381 0.897s-0.671 0.801-0.897 1.383c-0.264 0.68-0.423 1.423-0.479 2.659-0.089 1.947-0.099 2.608-0.099 6.928s0.009 4.981 0.099 6.929c0.056 1.236 0.213 1.977 0.479 2.657 0.227 0.581 0.467 0.951 0.897 1.383s0.801 0.672 1.381 0.897c0.68 0.264 1.423 0.423 2.659 0.479 1.949 0.089 2.611 0.099 6.929 0.099 4.32 0 4.98-0.009 6.929-0.099 1.236-0.056 1.977-0.213 2.659-0.479 0.58-0.227 0.949-0.467 1.381-0.897s0.672-0.801 0.897-1.381c0.264-0.68 0.423-1.423 0.479-2.659 0.089-1.949 0.099-2.611 0.099-6.929s-0.009-4.98-0.099-6.929c-0.056-1.236-0.213-1.977-0.479-2.657-0.188-0.524-0.495-0.997-0.897-1.383-0.385-0.402-0.858-0.709-1.383-0.897-0.68-0.264-1.423-0.423-2.659-0.479-1.948-0.089-2.609-0.099-6.929-0.099zM15.999 24.296c-2.2 0-4.31-0.874-5.866-2.43s-2.43-3.666-2.43-5.866c0-2.2 0.874-4.31 2.43-5.866s3.666-2.43 5.866-2.43c2.2 0 4.31 0.874 5.866 2.43s2.43 3.666 2.43 5.866c0 2.2-0.874 4.31-2.43 5.866s-3.666 2.43-5.866 2.43zM15.999 20.741c1.257 0 2.463-0.5 3.353-1.389s1.389-2.095 1.389-3.353-0.5-2.463-1.389-3.353c-0.889-0.889-2.095-1.389-3.353-1.389s-2.463 0.5-3.353 1.389c-0.889 0.889-1.389 2.095-1.389 3.353s0.5 2.463 1.389 3.353c0.889 0.889 2.095 1.389 3.353 1.389zM24.295 9.481c-0.472 0-0.924-0.187-1.257-0.521s-0.521-0.786-0.521-1.257 0.187-0.924 0.521-1.257c0.333-0.333 0.786-0.521 1.257-0.521s0.924 0.187 1.257 0.521c0.334 0.333 0.521 0.786 0.521 1.257s-0.187 0.924-0.521 1.257c-0.333 0.333-0.786 0.521-1.257 0.521z"></path>
</symbol>
<symbol id="menuOutlined" viewBox="0 0 32 32">
<path d="M31.68 5.333h-31.36c-0.176 0-0.32 0.109-0.32 0.242v1.939c0 0.133 0.144 0.242 0.32 0.242h31.36c0.176 0 0.32-0.109 0.32-0.242v-1.939c0-0.133-0.144-0.242-0.32-0.242zM31.68 24.242h-31.36c-0.176 0-0.32 0.109-0.32 0.242v1.939c0 0.133 0.144 0.242 0.32 0.242h31.36c0.176 0 0.32-0.109 0.32-0.242v-1.939c0-0.133-0.144-0.242-0.32-0.242zM31.68 14.788h-31.36c-0.176 0-0.32 0.109-0.32 0.242v1.939c0 0.133 0.144 0.242 0.32 0.242h31.36c0.176 0 0.32-0.109 0.32-0.242v-1.939c0-0.133-0.144-0.242-0.32-0.242z"></path>
</symbol>
<symbol id="rocket" viewBox="0 0 32 32">
<path d="M8.46 20.573c0.391-0.391 0.391-1.024 0-1.414s-1.024-0.391-1.414 0l1.414 1.414zM5.327 20.877c-0.391 0.39-0.391 1.024 0 1.414s1.024 0.39 1.414 0l-1.414-1.414zM10.151 22.263c0.391-0.391 0.391-1.024 0-1.414s-1.024-0.391-1.414 0l1.414 1.414zM4.744 24.842c-0.391 0.391-0.391 1.024 0 1.414s1.024 0.391 1.414 0l-1.414-1.414zM11.841 23.954c0.391-0.39 0.391-1.024 0-1.414s-1.024-0.39-1.414 0l1.414 1.414zM8.629 24.338c-0.391 0.391-0.391 1.024 0 1.414s1.024 0.391 1.414 0l-1.414-1.414zM18.708 10.101v0zM25.839 5.161l0.969-0.246c-0.091-0.357-0.371-0.636-0.728-0.725l-0.241 0.971zM9.016 18.295l-0.882-0.471c-0.208 0.388-0.137 0.867 0.175 1.178l0.707-0.707zM12.713 21.992l-0.707 0.707c0.312 0.312 0.79 0.383 1.179 0.175l-0.472-0.882zM11.044 12.617c0.548-0.067 0.938-0.566 0.871-1.114s-0.566-0.938-1.114-0.871l0.242 1.985zM4 16.384l-0.83-0.558c-0.25 0.372-0.222 0.865 0.068 1.206s0.772 0.448 1.179 0.261l-0.418-0.909zM7.79 17.176c0.543 0.101 1.065-0.257 1.166-0.8s-0.257-1.065-0.8-1.166l-0.367 1.966zM20.377 20.196c0.066-0.548-0.326-1.046-0.874-1.112s-1.046 0.326-1.112 0.874l1.986 0.238zM14.628 27l-0.91-0.415c-0.186 0.407-0.078 0.888 0.263 1.177s0.833 0.317 1.205 0.067l-0.558-0.83zM15.803 22.845c-0.101-0.543-0.622-0.902-1.165-0.801s-0.902 0.622-0.801 1.165l1.967-0.364zM7.046 19.159l-1.719 1.719 1.414 1.414 1.719-1.719-1.414-1.414zM8.737 20.849l-3.993 3.993 1.414 1.414 3.993-3.993-1.414-1.414zM10.427 22.54l-1.799 1.799 1.414 1.414 1.799-1.799-1.414-1.414zM18.708 11.101c0.235 0 0.466 0.070 0.661 0.201l1.111-1.663c-0.525-0.351-1.141-0.538-1.772-0.538v2zM19.37 11.302c0.196 0.131 0.348 0.317 0.438 0.534l1.848-0.765c-0.241-0.583-0.65-1.081-1.175-1.432l-1.111 1.663zM19.808 11.836c0.090 0.217 0.114 0.457 0.068 0.688l1.962 0.39c0.123-0.619 0.060-1.26-0.182-1.843l-1.848 0.765zM19.876 12.524c-0.046 0.231-0.159 0.443-0.326 0.609l1.414 1.414c0.446-0.446 0.75-1.015 0.873-1.633l-1.962-0.39zM19.55 13.133c-0.166 0.166-0.379 0.28-0.609 0.326l0.39 1.962c0.619-0.123 1.187-0.427 1.633-0.873l-1.414-1.414zM18.941 13.459c-0.231 0.046-0.47 0.022-0.688-0.068l-0.765 1.848c0.583 0.241 1.224 0.305 1.843 0.182l-0.39-1.962zM18.253 13.391c-0.218-0.090-0.403-0.243-0.534-0.438l-1.663 1.111c0.351 0.525 0.849 0.934 1.432 1.175l0.765-1.848zM17.719 12.953c-0.131-0.196-0.201-0.426-0.201-0.661h-2c0 0.631 0.187 1.248 0.538 1.772l1.663-1.111zM17.518 12.292c0-0.316 0.125-0.618 0.349-0.842l-1.414-1.414c-0.598 0.598-0.934 1.41-0.934 2.256h2zM17.867 11.45c0.223-0.223 0.526-0.349 0.842-0.349v-2c-0.846 0-1.658 0.336-2.256 0.934l1.414 1.414zM19.516 6.724l4.76 4.76 1.414-1.414-4.76-4.76-1.414 1.414zM26.080 4.191c-0.796-0.198-3.288-0.592-6.612 1.018-3.314 1.605-7.345 5.149-11.333 12.615l1.764 0.943c3.853-7.211 7.614-10.388 10.441-11.757 2.817-1.365 4.815-0.987 5.258-0.877l0.482-1.941zM8.309 19.002l3.697 3.697 1.414-1.414-3.697-3.697-1.414 1.414zM13.185 22.874c7.489-4.007 11.031-8.050 12.628-11.368 1.601-3.328 1.192-5.814 0.996-6.59l-1.939 0.491c0.107 0.423 0.497 2.413-0.859 5.232-1.361 2.829-4.534 6.601-11.769 10.472l0.943 1.763zM10.801 10.632c-1.993 0.243-5.003 1.285-7.631 5.195l1.66 1.116c2.272-3.38 4.738-4.145 6.214-4.325l-0.242-1.985zM4 16.384c0.418 0.909 0.417 0.909 0.417 0.909s-0.001 0-0.001 0-0.001 0-0.001 0.001-0.002 0.001-0.003 0.001-0.003 0.001-0.004 0.002-0.002 0.001-0.001 0.001 0.009-0.004 0.021-0.009c0.025-0.010 0.070-0.026 0.136-0.047 0.131-0.041 0.343-0.098 0.629-0.143 0.572-0.090 1.45-0.137 2.596 0.076l0.367-1.966c-1.384-0.258-2.492-0.209-3.274-0.086-0.39 0.062-0.698 0.142-0.916 0.21-0.109 0.034-0.196 0.066-0.26 0.091-0.032 0.012-0.058 0.023-0.079 0.032-0.010 0.004-0.019 0.008-0.026 0.011-0.004 0.002-0.007 0.003-0.010 0.004-0.001 0.001-0.003 0.001-0.004 0.002s-0.001 0.001-0.002 0.001-0.001 0-0.001 0-0.001 0 0.417 0.909zM18.391 19.959c-0.177 1.474-0.941 3.939-4.321 6.212l1.116 1.66c3.91-2.628 4.952-5.638 5.191-7.634l-1.986-0.238zM14.628 27c0.91 0.415 0.91 0.414 0.91 0.414s0-0.001 0-0.001 0.001-0.001 0.001-0.002 0.001-0.003 0.002-0.004 0.003-0.006 0.004-0.010 0.007-0.016 0.011-0.026 0.019-0.047 0.032-0.079c0.025-0.064 0.056-0.151 0.090-0.26 0.068-0.218 0.147-0.526 0.209-0.916 0.123-0.782 0.172-1.889-0.084-3.271l-1.967 0.364c0.212 1.144 0.165 2.023 0.075 2.596-0.045 0.287-0.101 0.5-0.142 0.632-0.021 0.066-0.037 0.112-0.047 0.137-0.005 0.012-0.008 0.020-0.009 0.022s-0 0.001 0-0.001c0-0.001 0.001-0.002 0.002-0.004s0.001-0.002 0.001-0.003 0-0.001 0.001-0.001 0-0.001 0-0.001 0-0.001 0.91 0.414z"></path>
</symbol>
<symbol id="search" viewBox="0 0 32 32">
<path d="M28.425 26.703l-8.116-8.116c1.259-1.628 1.941-3.619 1.941-5.712 0-2.506-0.978-4.856-2.747-6.628s-4.125-2.747-6.628-2.747-4.859 0.978-6.628 2.747c-1.772 1.769-2.747 4.122-2.747 6.628 0 2.503 0.978 4.859 2.747 6.628 1.769 1.772 4.122 2.747 6.628 2.747 2.094 0 4.081-0.681 5.709-1.937l8.116 8.112c0.024 0.024 0.052 0.043 0.083 0.056s0.064 0.020 0.098 0.020c0.034 0 0.067-0.007 0.098-0.020s0.059-0.032 0.083-0.056l1.362-1.359c0.024-0.024 0.043-0.052 0.056-0.083s0.020-0.065 0.020-0.098c0-0.034-0.007-0.067-0.020-0.098s-0.032-0.059-0.056-0.083zM17.825 17.825c-1.325 1.322-3.081 2.050-4.95 2.050s-3.625-0.728-4.95-2.050c-1.322-1.325-2.050-3.081-2.050-4.95s0.728-3.628 2.050-4.95c1.325-1.322 3.081-2.050 4.95-2.050s3.628 0.725 4.95 2.050c1.322 1.325 2.050 3.081 2.050 4.95s-0.728 3.628-2.050 4.95z"></path>
</symbol>
<symbol id="shopping-cart" viewBox="0 0 32 32">
<path stroke-linejoin="round" stroke-linecap="round" stroke-miterlimit="4"  d="M26.1 27h-20.2c-0.246-0.001-0.483-0.092-0.667-0.255s-0.302-0.388-0.333-0.632l-1.775-16c-0.016-0.139-0.002-0.281 0.040-0.414s0.112-0.257 0.205-0.362c0.093-0.105 0.207-0.189 0.335-0.247s0.266-0.088 0.407-0.089h23.775c0.14 0.001 0.279 0.031 0.407 0.089s0.242 0.142 0.335 0.247 0.163 0.228 0.205 0.362c0.042 0.134 0.056 0.275 0.040 0.414l-1.775 16c-0.030 0.244-0.149 0.469-0.333 0.632s-0.421 0.254-0.667 0.255v0z"></path>
<path stroke-linejoin="round" stroke-linecap="round" stroke-miterlimit="4"  d="M11 13v-4c0-1.326 0.527-2.598 1.464-3.536s2.209-1.464 3.536-1.464c1.326 0 2.598 0.527 3.536 1.464s1.464 2.209 1.464 3.536v4"></path>
</symbol>
<symbol id="tictok" viewBox="0 0 32 32">
<path d="M21.754 0c0.528 4.541 3.062 7.249 7.468 7.537v5.108c-2.553 0.25-4.79-0.586-7.391-2.16v9.553c0 12.136-13.228 15.928-18.546 7.229-3.417-5.597-1.325-15.419 9.638-15.813v5.386c-0.835 0.134-1.728 0.346-2.544 0.624-2.438 0.826-3.82 2.371-3.437 5.098 0.739 5.223 10.319 6.769 9.522-3.437v-19.116h5.289v-0.010z"></path>
</symbol>
<symbol id="vector" viewBox="0 0 32 32">
<path d="M25.314 3.279c-2.203-2.115-5.251-3.279-8.583-3.279-5.090 0-8.221 2.087-9.951 3.837-2.132 2.157-3.355 5.021-3.355 7.858 0 3.562 1.49 6.296 3.985 7.313 0.168 0.069 0.336 0.103 0.501 0.103 0.526 0 0.943-0.344 1.088-0.897 0.084-0.317 0.279-1.099 0.364-1.438 0.182-0.67 0.035-0.993-0.361-1.46-0.722-0.854-1.058-1.864-1.058-3.178 0-3.903 2.906-8.051 8.293-8.051 4.274 0 6.929 2.429 6.929 6.34 0 2.468-0.532 4.753-1.497 6.435-0.671 1.169-1.851 2.562-3.662 2.562-0.783 0-1.487-0.322-1.93-0.883-0.419-0.53-0.558-1.215-0.389-1.929 0.191-0.806 0.45-1.648 0.702-2.461 0.459-1.485 0.892-2.888 0.892-4.008 0-1.915-1.177-3.201-2.929-3.201-2.226 0-3.97 2.261-3.97 5.147 0 1.415 0.376 2.474 0.546 2.881-0.28 1.188-1.947 8.252-2.263 9.584-0.183 0.778-1.284 6.919 0.539 7.409 2.048 0.55 3.878-5.431 4.064-6.107 0.151-0.55 0.679-2.628 1.003-3.906 0.989 0.952 2.58 1.596 4.129 1.596 2.92 0 5.546-1.314 7.394-3.699 1.792-2.314 2.78-5.539 2.78-9.080-0-2.769-1.189-5.498-3.262-7.488z"></path>
</symbol>
<symbol id="youtube" viewBox="0 0 32 32">
<path d="M30.063 10.717c0.225 1.574 0.337 3.125 0.337 4.654v2.158l-0.337 4.654c-0.18 1.304-0.562 2.248-1.147 2.833-0.629 0.629-1.574 1.034-2.833 1.214-1.214 0.090-2.675 0.157-4.384 0.202-1.664 0.045-3.035 0.068-4.114 0.068h-1.619c-4.991-0.045-8.251-0.135-9.78-0.27 0 0-0.18-0.022-0.54-0.067s-0.652-0.090-0.877-0.135c-0.225-0.045-0.517-0.157-0.877-0.337-0.315-0.18-0.607-0.405-0.877-0.674-0.225-0.27-0.45-0.63-0.674-1.079-0.18-0.495-0.292-0.922-0.337-1.281l-0.135-0.472c-0.18-1.574-0.27-3.125-0.27-4.654v-2.158l0.27-4.654c0.18-1.304 0.562-2.248 1.147-2.833 0.63-0.674 1.596-1.079 2.9-1.214 1.214-0.090 2.653-0.157 4.317-0.202s3.035-0.067 4.114-0.067h1.619c4.047 0 7.419 0.090 10.117 0.27 1.259 0.135 2.203 0.54 2.833 1.214 0.18 0.18 0.337 0.405 0.472 0.674 0.135 0.225 0.247 0.472 0.337 0.742 0.090 0.225 0.157 0.45 0.202 0.674s0.090 0.405 0.135 0.54v0.202zM19.878 16.652l0.944-0.472-7.756-4.047v8.094l6.812-3.575z"></path>
</symbol>
</defs>
</svg>
