<svg aria-hidden="true" style="position: absolute; width: 0; height: 0; overflow: hidden;" version="1.1" xmlns="http://www.w3.org/2000/svg" xmlns:xlink="http://www.w3.org/1999/xlink">
<defs>

	<linearGradient id="halfColorGradient" x1="0%" y1="0%" x2="100%" y2="0%">
      <stop offset="50%" stop-color="#FADB14" stop-opacity="1" />
      <stop offset="50%" stop-color="#DDDDDF" stop-opacity="1" />
    </linearGradient>

<symbol id="arrow-left" viewBox="0 0 32 32">
<path d="M24 3.602v-3.264c0-0.283-0.259-0.439-0.434-0.266l-15.153 14.866c-0.129 0.126-0.233 0.287-0.305 0.471s-0.109 0.386-0.109 0.591c0 0.205 0.037 0.407 0.109 0.591s0.176 0.345 0.305 0.471l15.153 14.866c0.178 0.173 0.434 0.017 0.434-0.266v-3.264c0-0.207-0.077-0.405-0.205-0.532l-12.101-11.864 12.101-11.868c0.128-0.127 0.205-0.325 0.205-0.532z"></path>
</symbol>
<symbol id="arrow-right" viewBox="0 0 32 32">
<path d="M23.586 14.936l-15.153-14.864c-0.040-0.039-0.087-0.063-0.137-0.070s-0.101 0.004-0.146 0.032c-0.045 0.028-0.083 0.071-0.11 0.125s-0.041 0.116-0.040 0.179v3.263c0 0.207 0.077 0.405 0.205 0.532l12.101 11.867-12.101 11.867c-0.131 0.127-0.205 0.325-0.205 0.532v3.263c0 0.283 0.259 0.439 0.434 0.266l15.153-14.864c0.129-0.126 0.233-0.288 0.305-0.472s0.109-0.387 0.109-0.592-0.037-0.408-0.109-0.592c-0.072-0.184-0.176-0.346-0.305-0.472z"></path>
</symbol>
<symbol id="home" viewBox="0 0 32 32">
<path d="M29.579 15.783l-12.884-12.878c-0.184-0.183-0.434-0.286-0.694-0.286s-0.509 0.103-0.694 0.286l-12.884 12.878c-0.189 0.188-0.338 0.412-0.439 0.659s-0.151 0.512-0.148 0.778c0.012 1.1 0.928 1.978 2.028 1.978h1.328v10.178h21.619v-10.178h1.356c0.534 0 1.038-0.209 1.416-0.587 0.186-0.186 0.334-0.406 0.434-0.649s0.151-0.503 0.15-0.766c0-0.531-0.209-1.034-0.588-1.412zM17.751 27.127h-3.5v-6.375h3.5v6.375zM24.56 16.949v10.178h-4.809v-7.125c0-0.691-0.559-1.25-1.25-1.25h-5c-0.691 0-1.25 0.559-1.25 1.25v7.125h-4.809v-10.178h-3l11.563-11.553 11.559 11.553h-3.003z"></path>
</symbol>
<symbol id="star-half" fill="url(#halfColorGradient)" viewBox="0 0 26 28">
<path d="M26 10.109c0 0.281-0.203 0.547-0.406 0.75l-5.672 5.531 1.344 7.812c0.016 0.109 0.016 0.203 0.016 0.313 0 0.406-0.187 0.781-0.641 0.781-0.219 0-0.438-0.078-0.625-0.187l-7.016-3.687-7.016 3.687c-0.203 0.109-0.406 0.187-0.625 0.187-0.453 0-0.656-0.375-0.656-0.781 0-0.109 0.016-0.203 0.031-0.313l1.344-7.812-5.688-5.531c-0.187-0.203-0.391-0.469-0.391-0.75 0-0.469 0.484-0.656 0.875-0.719l7.844-1.141 3.516-7.109c0.141-0.297 0.406-0.641 0.766-0.641s0.625 0.344 0.766 0.641l3.516 7.109 7.844 1.141c0.375 0.063 0.875 0.25 0.875 0.719z"></path>
</symbol>
<symbol id="star-full" fill="#FADB14" viewBox="0 0 26 28">
<path d="M26 10.109c0 0.281-0.203 0.547-0.406 0.75l-5.672 5.531 1.344 7.812c0.016 0.109 0.016 0.203 0.016 0.313 0 0.406-0.187 0.781-0.641 0.781-0.219 0-0.438-0.078-0.625-0.187l-7.016-3.687-7.016 3.687c-0.203 0.109-0.406 0.187-0.625 0.187-0.453 0-0.656-0.375-0.656-0.781 0-0.109 0.016-0.203 0.031-0.313l1.344-7.812-5.688-5.531c-0.187-0.203-0.391-0.469-0.391-0.75 0-0.469 0.484-0.656 0.875-0.719l7.844-1.141 3.516-7.109c0.141-0.297 0.406-0.641 0.766-0.641s0.625 0.344 0.766 0.641l3.516 7.109 7.844 1.141c0.375 0.063 0.875 0.25 0.875 0.719z"></path>
</symbol>
<symbol id="star-empty" fill="#DDDDDF" viewBox="0 0 26 28">
<path d="M26 10.109c0 0.281-0.203 0.547-0.406 0.75l-5.672 5.531 1.344 7.812c0.016 0.109 0.016 0.203 0.016 0.313 0 0.406-0.187 0.781-0.641 0.781-0.219 0-0.438-0.078-0.625-0.187l-7.016-3.687-7.016 3.687c-0.203 0.109-0.406 0.187-0.625 0.187-0.453 0-0.656-0.375-0.656-0.781 0-0.109 0.016-0.203 0.031-0.313l1.344-7.812-5.688-5.531c-0.187-0.203-0.391-0.469-0.391-0.75 0-0.469 0.484-0.656 0.875-0.719l7.844-1.141 3.516-7.109c0.141-0.297 0.406-0.641 0.766-0.641s0.625 0.344 0.766 0.641l3.516 7.109 7.844 1.141c0.375 0.063 0.875 0.25 0.875 0.719z"></path>
</symbol>
<symbol id="minus" viewBox="0 0 32 32">
<path d="M27.25 14.813h-22.5c-0.138 0-0.25 0.112-0.25 0.25v1.875c0 0.137 0.112 0.25 0.25 0.25h22.5c0.137 0 0.25-0.113 0.25-0.25v-1.875c0-0.138-0.113-0.25-0.25-0.25z"></path>
</symbol>
<symbol id="plus" viewBox="0 0 32 32">
<path d="M15.063 4.75h1.875c0.167 0 0.25 0.083 0.25 0.25v22c0 0.167-0.083 0.25-0.25 0.25h-1.875c-0.167 0-0.25-0.083-0.25-0.25v-22c0-0.167 0.083-0.25 0.25-0.25z"></path>
<path d="M6 14.813h21c0.167 0 0.25 0.083 0.25 0.25v1.875c0 0.167-0.083 0.25-0.25 0.25h-22c-0.167 0-0.25-0.083-0.25-0.25v-1.875c0-0.167 0.083-0.25 0.25-0.25h1z"></path>
</symbol>
<symbol id="arrow-down" viewBox="0 0 12 12">
<path d="M10.8951 1H9.90821C9.8411 1 9.77794 1.02441 9.73847 1.06445L6.00025 4.88867L2.26203 1.06445C2.22256 1.02441 2.1594 1 2.09229 1H1.10543C1.0199 1 0.969903 1.07227 1.0199 1.12402L5.65945 5.87109C5.82788 6.04297 6.17262 6.04297 6.33973 5.87109L10.9793 1.12402C11.0306 1.07227 10.9806 1 10.8951 1Z"></path>
</symbol>
<symbol id="burgerMenu-close" viewBox="0 -8 18 32">
<path d="M9.31898 8L15.9518 0.321472C16.063 0.193865 15.9695 0 15.7977 0H13.7813C13.6625 0 13.5488 0.0515337 13.4705 0.139877L8 6.47362L2.52951 0.139877C2.45371 0.0515337 2.34 0 2.21872 0H0.202345C0.030524 0 -0.0629672 0.193865 0.0482113 0.321472L6.68102 8L0.0482113 15.6785C0.0233063 15.707 0.00732877 15.7418 0.00217506 15.7788C-0.00297865 15.8158 0.0029079 15.8534 0.0191365 15.8873C0.035365 15.9211 0.0612539 15.9497 0.093729 15.9697C0.126204 15.9897 0.163901 16.0002 0.202345 16H2.21872C2.33748 16 2.45118 15.9485 2.52951 15.8601L8 9.52638L13.4705 15.8601C13.5463 15.9485 13.66 16 13.7813 16H15.7977C15.9695 16 16.063 15.8061 15.9518 15.6785L9.31898 8Z"></path>
</symbol>
<symbol id="burgerMenu-open" viewBox="0 -8 25 32">
<path d="M23.76 0H0.24C0.108 0 0 0.0818182 0 0.181818V1.63636C0 1.73636 0.108 1.81818 0.24 1.81818H23.76C23.892 1.81818 24 1.73636 24 1.63636V0.181818C24 0.0818182 23.892 0 23.76 0ZM23.76 14.1818H0.24C0.108 14.1818 0 14.2636 0 14.3636V15.8182C0 15.9182 0.108 16 0.24 16H23.76C23.892 16 24 15.9182 24 15.8182V14.3636C24 14.2636 23.892 14.1818 23.76 14.1818ZM23.76 7.09091H0.24C0.108 7.09091 0 7.17273 0 7.27273V8.72727C0 8.82727 0.108 8.90909 0.24 8.90909H23.76C23.892 8.90909 24 8.82727 24 8.72727V7.27273C24 7.17273 23.892 7.09091 23.76 7.09091Z"></path>
</symbol>
<symbol id="email" viewBox="0 0 32 32">
<path d="M27.071 6h-24.143c-0.514 0-0.929 0.406-0.929 0.909v18.182c0 0.503 0.415 0.909 0.929 0.909h24.143c0.514 0 0.929-0.406 0.929-0.909v-18.182c0-0.503-0.415-0.909-0.929-0.909zM25.911 9.148v14.807h-21.822v-14.807l-0.801-0.611 1.14-1.435 1.242 0.946h18.661l1.242-0.946 1.14 1.435-0.804 0.611zM24.332 8.045l-9.332 7.102-10.574-8.048-1.14 1.435 0.801 0.611 9.912 7.545c0.285 0.217 0.636 0.335 0.997 0.335s0.712-0.118 0.997-0.335l10.719-8.153-1.14-1.435-1.239 0.943z"></path>
</symbol>
<symbol id="heart" viewBox="0 0 32 32">
<path stroke-linejoin="round" stroke-linecap="round" stroke-miterlimit="4" d="M16 27c0 0-12.5-7-12.5-15.5 0-1.503 0.521-2.959 1.473-4.121s2.279-1.958 3.752-2.253c1.473-0.295 3.004-0.070 4.33 0.636s2.367 1.85 2.945 3.237c0.578-1.387 1.619-2.531 2.945-3.237s2.856-0.931 4.33-0.636 2.799 1.091 3.752 2.253c0.953 1.162 1.473 2.618 1.473 4.121 0 8.5-12.5 15.5-12.5 15.5z"></path>
</symbol>
<symbol id="user" viewBox="0 0 32 32">
<path stroke-linejoin="miter" stroke-linecap="round" stroke-miterlimit="4" d="M16.558 15.111c2.945 0 5.333-2.388 5.333-5.333s-2.388-5.333-5.333-5.333-5.333 2.388-5.333 5.333c0 2.946 2.388 5.333 5.333 5.333z"></path>
<path stroke-linejoin="miter" stroke-linecap="round" stroke-miterlimit="4" d="M5.782 22.886c0.953-3.474 4.57-5.108 8.194-5.108h4.936c3.623 0 7.241 1.634 8.195 5.108 0.208 0.754 0.355 1.523 0.44 2.301 0.089 0.815-0.587 1.48-1.411 1.48h-19.385c-0.823 0-1.499-0.667-1.411-1.479 0.085-0.778 0.233-1.548 0.441-2.302z"></path>
</symbol>
<symbol id="inst" viewBox="0 0 32 32">
<path d="M23.091 0.103c1.624 0.075 2.747 0.313 3.784 0.716 0.983 0.369 1.873 0.949 2.608 1.699 0.75 0.735 1.329 1.625 1.699 2.608 0.403 1.039 0.641 2.16 0.716 3.784 0.092 2.013 0.103 2.723 0.103 7.091s-0.011 5.077-0.103 7.091c-0.075 1.624-0.313 2.747-0.716 3.785-0.369 0.982-0.949 1.872-1.699 2.607-0.735 0.75-1.625 1.329-2.608 1.699-1.039 0.403-2.16 0.641-3.784 0.716-2.013 0.092-2.721 0.103-7.091 0.103s-5.079-0.011-7.091-0.103c-1.624-0.075-2.747-0.313-3.785-0.716-0.982-0.369-1.872-0.949-2.607-1.699-0.75-0.735-1.329-1.625-1.699-2.608-0.403-1.039-0.641-2.16-0.716-3.784-0.092-2.011-0.103-2.72-0.103-7.091s0.011-5.080 0.103-7.091c0.075-1.624 0.313-2.747 0.716-3.784 0.369-0.983 0.949-1.873 1.699-2.608 0.735-0.749 1.624-1.329 2.607-1.699 1.040-0.403 2.161-0.641 3.785-0.716 2.011-0.092 2.72-0.103 7.091-0.103s5.080 0.011 7.091 0.103zM16 3.556c-4.32 0-4.981 0.009-6.929 0.099-1.236 0.056-1.977 0.213-2.659 0.479-0.58 0.227-0.949 0.467-1.381 0.897s-0.671 0.801-0.897 1.383c-0.264 0.68-0.423 1.423-0.479 2.659-0.089 1.947-0.099 2.608-0.099 6.928s0.009 4.981 0.099 6.929c0.056 1.236 0.213 1.977 0.479 2.657 0.227 0.581 0.467 0.951 0.897 1.383s0.801 0.672 1.381 0.897c0.68 0.264 1.423 0.423 2.659 0.479 1.949 0.089 2.611 0.099 6.929 0.099 4.32 0 4.98-0.009 6.929-0.099 1.236-0.056 1.977-0.213 2.659-0.479 0.58-0.227 0.949-0.467 1.381-0.897s0.672-0.801 0.897-1.381c0.264-0.68 0.423-1.423 0.479-2.659 0.089-1.949 0.099-2.611 0.099-6.929s-0.009-4.98-0.099-6.929c-0.056-1.236-0.213-1.977-0.479-2.657-0.188-0.524-0.495-0.997-0.897-1.383-0.385-0.402-0.858-0.709-1.383-0.897-0.68-0.264-1.423-0.423-2.659-0.479-1.948-0.089-2.609-0.099-6.929-0.099zM15.999 24.296c-2.2 0-4.31-0.874-5.866-2.43s-2.43-3.666-2.43-5.866c0-2.2 0.874-4.31 2.43-5.866s3.666-2.43 5.866-2.43c2.2 0 4.31 0.874 5.866 2.43s2.43 3.666 2.43 5.866c0 2.2-0.874 4.31-2.43 5.866s-3.666 2.43-5.866 2.43zM15.999 20.741c1.257 0 2.463-0.5 3.353-1.389s1.389-2.095 1.389-3.353-0.5-2.463-1.389-3.353c-0.889-0.889-2.095-1.389-3.353-1.389s-2.463 0.5-3.353 1.389c-0.889 0.889-1.389 2.095-1.389 3.353s0.5 2.463 1.389 3.353c0.889 0.889 2.095 1.389 3.353 1.389zM24.295 9.481c-0.472 0-0.924-0.187-1.257-0.521s-0.521-0.786-0.521-1.257 0.187-0.924 0.521-1.257c0.333-0.333 0.786-0.521 1.257-0.521s0.924 0.187 1.257 0.521c0.334 0.333 0.521 0.786 0.521 1.257s-0.187 0.924-0.521 1.257c-0.333 0.333-0.786 0.521-1.257 0.521z"></path>
</symbol>
<symbol id="menuOutlined" viewBox="0 0 32 32">
<path d="M31.68 5.333h-31.36c-0.176 0-0.32 0.109-0.32 0.242v1.939c0 0.133 0.144 0.242 0.32 0.242h31.36c0.176 0 0.32-0.109 0.32-0.242v-1.939c0-0.133-0.144-0.242-0.32-0.242zM31.68 24.242h-31.36c-0.176 0-0.32 0.109-0.32 0.242v1.939c0 0.133 0.144 0.242 0.32 0.242h31.36c0.176 0 0.32-0.109 0.32-0.242v-1.939c0-0.133-0.144-0.242-0.32-0.242zM31.68 14.788h-31.36c-0.176 0-0.32 0.109-0.32 0.242v1.939c0 0.133 0.144 0.242 0.32 0.242h31.36c0.176 0 0.32-0.109 0.32-0.242v-1.939c0-0.133-0.144-0.242-0.32-0.242z"></path>
</symbol>
<symbol id="rocket" viewBox="0 0 32 32">
<path d="M8.46 20.573c0.391-0.391 0.391-1.024 0-1.414s-1.024-0.391-1.414 0l1.414 1.414zM5.327 20.877c-0.391 0.39-0.391 1.024 0 1.414s1.024 0.39 1.414 0l-1.414-1.414zM10.151 22.263c0.391-0.391 0.391-1.024 0-1.414s-1.024-0.391-1.414 0l1.414 1.414zM4.744 24.842c-0.391 0.391-0.391 1.024 0 1.414s1.024 0.391 1.414 0l-1.414-1.414zM11.841 23.954c0.391-0.39 0.391-1.024 0-1.414s-1.024-0.39-1.414 0l1.414 1.414zM8.629 24.338c-0.391 0.391-0.391 1.024 0 1.414s1.024 0.391 1.414 0l-1.414-1.414zM18.708 10.101v0zM25.839 5.161l0.969-0.246c-0.091-0.357-0.371-0.636-0.728-0.725l-0.241 0.971zM9.016 18.295l-0.882-0.471c-0.208 0.388-0.137 0.867 0.175 1.178l0.707-0.707zM12.713 21.992l-0.707 0.707c0.312 0.312 0.79 0.383 1.179 0.175l-0.472-0.882zM11.044 12.617c0.548-0.067 0.938-0.566 0.871-1.114s-0.566-0.938-1.114-0.871l0.242 1.985zM4 16.384l-0.83-0.558c-0.25 0.372-0.222 0.865 0.068 1.206s0.772 0.448 1.179 0.261l-0.418-0.909zM7.79 17.176c0.543 0.101 1.065-0.257 1.166-0.8s-0.257-1.065-0.8-1.166l-0.367 1.966zM20.377 20.196c0.066-0.548-0.326-1.046-0.874-1.112s-1.046 0.326-1.112 0.874l1.986 0.238zM14.628 27l-0.91-0.415c-0.186 0.407-0.078 0.888 0.263 1.177s0.833 0.317 1.205 0.067l-0.558-0.83zM15.803 22.845c-0.101-0.543-0.622-0.902-1.165-0.801s-0.902 0.622-0.801 1.165l1.967-0.364zM7.046 19.159l-1.719 1.719 1.414 1.414 1.719-1.719-1.414-1.414zM8.737 20.849l-3.993 3.993 1.414 1.414 3.993-3.993-1.414-1.414zM10.427 22.54l-1.799 1.799 1.414 1.414 1.799-1.799-1.414-1.414zM18.708 11.101c0.235 0 0.466 0.070 0.661 0.201l1.111-1.663c-0.525-0.351-1.141-0.538-1.772-0.538v2zM19.37 11.302c0.196 0.131 0.348 0.317 0.438 0.534l1.848-0.765c-0.241-0.583-0.65-1.081-1.175-1.432l-1.111 1.663zM19.808 11.836c0.090 0.217 0.114 0.457 0.068 0.688l1.962 0.39c0.123-0.619 0.060-1.26-0.182-1.843l-1.848 0.765zM19.876 12.524c-0.046 0.231-0.159 0.443-0.326 0.609l1.414 1.414c0.446-0.446 0.75-1.015 0.873-1.633l-1.962-0.39zM19.55 13.133c-0.166 0.166-0.379 0.28-0.609 0.326l0.39 1.962c0.619-0.123 1.187-0.427 1.633-0.873l-1.414-1.414zM18.941 13.459c-0.231 0.046-0.47 0.022-0.688-0.068l-0.765 1.848c0.583 0.241 1.224 0.305 1.843 0.182l-0.39-1.962zM18.253 13.391c-0.218-0.090-0.403-0.243-0.534-0.438l-1.663 1.111c0.351 0.525 0.849 0.934 1.432 1.175l0.765-1.848zM17.719 12.953c-0.131-0.196-0.201-0.426-0.201-0.661h-2c0 0.631 0.187 1.248 0.538 1.772l1.663-1.111zM17.518 12.292c0-0.316 0.125-0.618 0.349-0.842l-1.414-1.414c-0.598 0.598-0.934 1.41-0.934 2.256h2zM17.867 11.45c0.223-0.223 0.526-0.349 0.842-0.349v-2c-0.846 0-1.658 0.336-2.256 0.934l1.414 1.414zM19.516 6.724l4.76 4.76 1.414-1.414-4.76-4.76-1.414 1.414zM26.080 4.191c-0.796-0.198-3.288-0.592-6.612 1.018-3.314 1.605-7.345 5.149-11.333 12.615l1.764 0.943c3.853-7.211 7.614-10.388 10.441-11.757 2.817-1.365 4.815-0.987 5.258-0.877l0.482-1.941zM8.309 19.002l3.697 3.697 1.414-1.414-3.697-3.697-1.414 1.414zM13.185 22.874c7.489-4.007 11.031-8.050 12.628-11.368 1.601-3.328 1.192-5.814 0.996-6.59l-1.939 0.491c0.107 0.423 0.497 2.413-0.859 5.232-1.361 2.829-4.534 6.601-11.769 10.472l0.943 1.763zM10.801 10.632c-1.993 0.243-5.003 1.285-7.631 5.195l1.66 1.116c2.272-3.38 4.738-4.145 6.214-4.325l-0.242-1.985zM4 16.384c0.418 0.909 0.417 0.909 0.417 0.909s-0.001 0-0.001 0-0.001 0-0.001 0.001-0.002 0.001-0.003 0.001-0.003 0.001-0.004 0.002-0.002 0.001-0.001 0.001 0.009-0.004 0.021-0.009c0.025-0.010 0.070-0.026 0.136-0.047 0.131-0.041 0.343-0.098 0.629-0.143 0.572-0.090 1.45-0.137 2.596 0.076l0.367-1.966c-1.384-0.258-2.492-0.209-3.274-0.086-0.39 0.062-0.698 0.142-0.916 0.21-0.109 0.034-0.196 0.066-0.26 0.091-0.032 0.012-0.058 0.023-0.079 0.032-0.010 0.004-0.019 0.008-0.026 0.011-0.004 0.002-0.007 0.003-0.010 0.004-0.001 0.001-0.003 0.001-0.004 0.002s-0.001 0.001-0.002 0.001-0.001 0-0.001 0-0.001 0 0.417 0.909zM18.391 19.959c-0.177 1.474-0.941 3.939-4.321 6.212l1.116 1.66c3.91-2.628 4.952-5.638 5.191-7.634l-1.986-0.238zM14.628 27c0.91 0.415 0.91 0.414 0.91 0.414s0-0.001 0-0.001 0.001-0.001 0.001-0.002 0.001-0.003 0.002-0.004 0.003-0.006 0.004-0.010 0.007-0.016 0.011-0.026 0.019-0.047 0.032-0.079c0.025-0.064 0.056-0.151 0.090-0.26 0.068-0.218 0.147-0.526 0.209-0.916 0.123-0.782 0.172-1.889-0.084-3.271l-1.967 0.364c0.212 1.144 0.165 2.023 0.075 2.596-0.045 0.287-0.101 0.5-0.142 0.632-0.021 0.066-0.037 0.112-0.047 0.137-0.005 0.012-0.008 0.020-0.009 0.022s-0 0.001 0-0.001c0-0.001 0.001-0.002 0.002-0.004s0.001-0.002 0.001-0.003 0-0.001 0.001-0.001 0-0.001 0-0.001 0-0.001 0.91 0.414z"></path>
</symbol>
<symbol id="search" viewBox="0 0 32 32">
<path d="M28.425 26.703l-8.116-8.116c1.259-1.628 1.941-3.619 1.941-5.712 0-2.506-0.978-4.856-2.747-6.628s-4.125-2.747-6.628-2.747-4.859 0.978-6.628 2.747c-1.772 1.769-2.747 4.122-2.747 6.628 0 2.503 0.978 4.859 2.747 6.628 1.769 1.772 4.122 2.747 6.628 2.747 2.094 0 4.081-0.681 5.709-1.937l8.116 8.112c0.024 0.024 0.052 0.043 0.083 0.056s0.064 0.020 0.098 0.020c0.034 0 0.067-0.007 0.098-0.020s0.059-0.032 0.083-0.056l1.362-1.359c0.024-0.024 0.043-0.052 0.056-0.083s0.020-0.065 0.020-0.098c0-0.034-0.007-0.067-0.020-0.098s-0.032-0.059-0.056-0.083zM17.825 17.825c-1.325 1.322-3.081 2.050-4.95 2.050s-3.625-0.728-4.95-2.050c-1.322-1.325-2.050-3.081-2.050-4.95s0.728-3.628 2.050-4.95c1.325-1.322 3.081-2.050 4.95-2.050s3.628 0.725 4.95 2.050c1.322 1.325 2.050 3.081 2.050 4.95s-0.728 3.628-2.050 4.95z"></path>
</symbol>
<symbol id="shopping-cart" viewBox="0 0 32 32">
<path stroke-linejoin="round" stroke-linecap="round" stroke-miterlimit="4"  d="M26.1 27h-20.2c-0.246-0.001-0.483-0.092-0.667-0.255s-0.302-0.388-0.333-0.632l-1.775-16c-0.016-0.139-0.002-0.281 0.040-0.414s0.112-0.257 0.205-0.362c0.093-0.105 0.207-0.189 0.335-0.247s0.266-0.088 0.407-0.089h23.775c0.14 0.001 0.279 0.031 0.407 0.089s0.242 0.142 0.335 0.247 0.163 0.228 0.205 0.362c0.042 0.134 0.056 0.275 0.040 0.414l-1.775 16c-0.030 0.244-0.149 0.469-0.333 0.632s-0.421 0.254-0.667 0.255v0z"></path>
<path stroke-linejoin="round" stroke-linecap="round" stroke-miterlimit="4"  d="M11 13v-4c0-1.326 0.527-2.598 1.464-3.536s2.209-1.464 3.536-1.464c1.326 0 2.598 0.527 3.536 1.464s1.464 2.209 1.464 3.536v4"></path>
</symbol>
<symbol id="tictok" viewBox="0 0 32 32">
<path d="M21.754 0c0.528 4.541 3.062 7.249 7.468 7.537v5.108c-2.553 0.25-4.79-0.586-7.391-2.16v9.553c0 12.136-13.228 15.928-18.546 7.229-3.417-5.597-1.325-15.419 9.638-15.813v5.386c-0.835 0.134-1.728 0.346-2.544 0.624-2.438 0.826-3.82 2.371-3.437 5.098 0.739 5.223 10.319 6.769 9.522-3.437v-19.116h5.289v-0.010z"></path>
</symbol>
<symbol id="pinterest" viewBox="0 0 32 32">
<path d="M25.314 3.279c-2.203-2.115-5.251-3.279-8.583-3.279-5.090 0-8.221 2.087-9.951 3.837-2.132 2.157-3.355 5.021-3.355 7.858 0 3.562 1.49 6.296 3.985 7.313 0.168 0.069 0.336 0.103 0.501 0.103 0.526 0 0.943-0.344 1.088-0.897 0.084-0.317 0.279-1.099 0.364-1.438 0.182-0.67 0.035-0.993-0.361-1.46-0.722-0.854-1.058-1.864-1.058-3.178 0-3.903 2.906-8.051 8.293-8.051 4.274 0 6.929 2.429 6.929 6.34 0 2.468-0.532 4.753-1.497 6.435-0.671 1.169-1.851 2.562-3.662 2.562-0.783 0-1.487-0.322-1.93-0.883-0.419-0.53-0.558-1.215-0.389-1.929 0.191-0.806 0.45-1.648 0.702-2.461 0.459-1.485 0.892-2.888 0.892-4.008 0-1.915-1.177-3.201-2.929-3.201-2.226 0-3.97 2.261-3.97 5.147 0 1.415 0.376 2.474 0.546 2.881-0.28 1.188-1.947 8.252-2.263 9.584-0.183 0.778-1.284 6.919 0.539 7.409 2.048 0.55 3.878-5.431 4.064-6.107 0.151-0.55 0.679-2.628 1.003-3.906 0.989 0.952 2.58 1.596 4.129 1.596 2.92 0 5.546-1.314 7.394-3.699 1.792-2.314 2.78-5.539 2.78-9.080-0-2.769-1.189-5.498-3.262-7.488z"></path>
</symbol>
<symbol id="youtube" viewBox="0 0 32 32">
<path d="M30.063 10.717c0.225 1.574 0.337 3.125 0.337 4.654v2.158l-0.337 4.654c-0.18 1.304-0.562 2.248-1.147 2.833-0.629 0.629-1.574 1.034-2.833 1.214-1.214 0.090-2.675 0.157-4.384 0.202-1.664 0.045-3.035 0.068-4.114 0.068h-1.619c-4.991-0.045-8.251-0.135-9.78-0.27 0 0-0.18-0.022-0.54-0.067s-0.652-0.090-0.877-0.135c-0.225-0.045-0.517-0.157-0.877-0.337-0.315-0.18-0.607-0.405-0.877-0.674-0.225-0.27-0.45-0.63-0.674-1.079-0.18-0.495-0.292-0.922-0.337-1.281l-0.135-0.472c-0.18-1.574-0.27-3.125-0.27-4.654v-2.158l0.27-4.654c0.18-1.304 0.562-2.248 1.147-2.833 0.63-0.674 1.596-1.079 2.9-1.214 1.214-0.090 2.653-0.157 4.317-0.202s3.035-0.067 4.114-0.067h1.619c4.047 0 7.419 0.090 10.117 0.27 1.259 0.135 2.203 0.54 2.833 1.214 0.18 0.18 0.337 0.405 0.472 0.674 0.135 0.225 0.247 0.472 0.337 0.742 0.090 0.225 0.157 0.45 0.202 0.674s0.090 0.405 0.135 0.54v0.202zM19.878 16.652l0.944-0.472-7.756-4.047v8.094l6.812-3.575z"></path>
</symbol>
<symbol id="upOutlined" viewBox="0 0 46 32">
<path d="M6.25 24h3.348c0.228 0 0.442-0.078 0.576-0.206l12.683-12.238 12.683 12.238c0.134 0.128 0.348 0.206 0.576 0.206h3.348c0.29 0 0.46-0.231 0.29-0.397l-15.741-15.191c-0.571-0.55-1.741-0.55-2.308 0l-15.741 15.191c-0.174 0.166-0.004 0.397 0.286 0.397z"></path>
</symbol>
<symbol id="downOutlined" viewBox="0 0 46 32">
<path d="M39.464 8h-3.348c-0.228 0-0.442 0.078-0.576 0.206l-12.683 12.238-12.683-12.238c-0.134-0.128-0.348-0.206-0.576-0.206h-3.348c-0.29 0-0.46 0.231-0.29 0.397l15.741 15.191c0.571 0.55 1.741 0.55 2.308 0l15.741-15.191c0.174-0.166 0.005-0.397-0.286-0.397z"></path>
</symbol>
<symbol id="phone" viewBox="0 0 32 32">
<path d="M1.221 6.434l3.727-3.724c0.455-0.455 1.064-0.71 1.708-0.71s1.253 0.252 1.708 0.71l4.014 4.007c0.455 0.455 0.71 1.067 0.71 1.711 0 0.647-0.252 1.253-0.71 1.711l-3.136 3.139c0.714 1.664 1.741 3.177 3.024 4.455 1.284 1.291 2.786 2.31 4.451 3.031l3.136-3.139c0.455-0.455 1.064-0.71 1.708-0.71 0.318-0.001 0.632 0.061 0.926 0.183s0.559 0.301 0.782 0.527l4.018 4.007c0.455 0.455 0.71 1.067 0.71 1.711 0 0.647-0.252 1.253-0.71 1.711l-3.724 3.723c-0.777 0.777-1.848 1.221-2.947 1.221-0.228 0-0.448-0.017-0.672-0.056-4.633-0.763-9.232-3.23-12.945-6.94-3.71-3.717-6.173-8.315-6.943-12.952-0.22-1.316 0.22-2.67 1.165-3.619zM2.537 9.636c0.682 4.126 2.901 8.241 6.243 11.584s7.454 5.561 11.58 6.243c0.518 0.088 1.050-0.087 1.428-0.462l3.657-3.657-3.878-3.881-4.224 4.231-0.756-0.28c-2.292-0.843-4.373-2.174-6.1-3.901s-3.057-3.809-3.899-6.101l-0.28-0.756 4.227-4.224-3.878-3.881-3.657 3.657c-0.378 0.378-0.553 0.91-0.465 1.428z"></path>
</symbol>
<symbol id="twitter" viewBox="0 0 32 32">
<path d="M32 7.075c-1.175 0.525-2.444 0.875-3.769 1.031 1.356-0.813 2.394-2.1 2.887-3.631-1.269 0.75-2.675 1.3-4.169 1.594-1.2-1.275-2.906-2.069-4.794-2.069-3.625 0-6.563 2.938-6.563 6.563 0 0.512 0.056 1.012 0.169 1.494-5.456-0.275-10.294-2.888-13.531-6.862-0.563 0.969-0.887 2.1-0.887 3.3 0 2.275 1.156 4.287 2.919 5.463-1.075-0.031-2.087-0.331-2.975-0.819 0 0.025 0 0.056 0 0.081 0 3.181 2.263 5.838 5.269 6.437-0.55 0.15-1.131 0.231-1.731 0.231-0.425 0-0.831-0.044-1.237-0.119 0.838 2.606 3.263 4.506 6.131 4.563-2.25 1.762-5.075 2.813-8.156 2.813-0.531 0-1.050-0.031-1.569-0.094 2.913 1.869 6.362 2.95 10.069 2.95 12.075 0 18.681-10.006 18.681-18.681 0-0.287-0.006-0.569-0.019-0.85 1.281-0.919 2.394-2.075 3.275-3.394z"></path>
<symbol id="gift" viewBox="0 0 33 32">
<path d="M30.364 9.409h-6.564c0.337-0.211 0.656-0.45 0.955-0.713 0.45-0.401 0.813-0.891 1.065-1.438s0.389-1.141 0.402-1.744c0.020-0.663-0.097-1.323-0.341-1.94s-0.612-1.177-1.081-1.646-1.028-0.838-1.644-1.084c-0.616-0.246-1.276-0.363-1.939-0.345-0.603 0.013-1.196 0.149-1.744 0.402s-1.037 0.615-1.438 1.065c-0.737 0.87-1.304 1.87-1.67 2.95-0.366-1.078-0.932-2.079-1.667-2.948-0.401-0.451-0.891-0.814-1.439-1.067s-1.142-0.389-1.746-0.402c-0.663-0.019-1.324 0.097-1.941 0.343s-1.177 0.614-1.646 1.083-0.838 1.030-1.083 1.647c-0.245 0.617-0.361 1.277-0.342 1.941 0.013 0.603 0.149 1.196 0.402 1.744s0.615 1.037 1.065 1.438c0.298 0.263 0.618 0.501 0.955 0.713h-6.558c-0.293 0-0.582 0.058-0.853 0.17s-0.516 0.276-0.723 0.483-0.371 0.453-0.483 0.723c-0.112 0.27-0.169 0.56-0.169 0.853v5.091c0 0.591 0.235 1.157 0.652 1.575s0.984 0.652 1.575 0.652h0.318v10.5c0 0.591 0.235 1.157 0.652 1.575s0.984 0.652 1.575 0.652h22.909c0.591 0 1.157-0.235 1.575-0.652s0.652-0.984 0.652-1.575v-10.5h0.318c0.591 0 1.157-0.235 1.575-0.652s0.652-0.984 0.652-1.575v-5.091c0-0.591-0.235-1.157-0.652-1.575s-0.984-0.652-1.575-0.652zM17.6 7.659c0.358-1.928 1.001-3.46 1.86-4.431 0.23-0.254 0.51-0.457 0.822-0.598s0.65-0.216 0.992-0.221h0.087c0.396 0 0.788 0.079 1.152 0.234s0.694 0.38 0.97 0.664c0.276 0.284 0.492 0.62 0.635 0.989s0.211 0.763 0.2 1.158c-0.005 0.343-0.081 0.681-0.223 0.993s-0.346 0.591-0.601 0.821c-1.705 1.505-4.598 1.955-6.122 2.086 0.040-0.46 0.105-1.045 0.227-1.694zM9.276 3.276c0.555-0.553 1.307-0.865 2.090-0.867h0.088c0.343 0.005 0.681 0.081 0.993 0.223s0.591 0.346 0.821 0.601c1.505 1.705 1.955 4.598 2.086 6.122-0.46-0.040-1.045-0.108-1.688-0.227-1.928-0.355-3.46-1.001-4.431-1.861-0.255-0.229-0.46-0.508-0.602-0.82s-0.218-0.65-0.224-0.992c-0.011-0.403 0.060-0.804 0.209-1.178s0.373-0.715 0.658-1zM2.045 16.727v-5.091c0-0.084 0.034-0.165 0.093-0.225s0.141-0.093 0.225-0.093h13.045v5.727h-13.045c-0.084 0-0.165-0.033-0.225-0.093s-0.093-0.141-0.093-0.225zM4.591 29.455v-10.5h10.818v10.818h-10.5c-0.084 0-0.165-0.033-0.225-0.093s-0.093-0.141-0.093-0.225zM28.136 29.455c0 0.084-0.034 0.165-0.093 0.225s-0.141 0.093-0.225 0.093h-10.5v-10.818h10.818v10.5zM30.682 16.727c0 0.084-0.034 0.165-0.093 0.225s-0.141 0.093-0.225 0.093h-13.045v-5.727h13.045c0.084 0 0.165 0.034 0.225 0.093s0.093 0.141 0.093 0.225v5.091z"></path>
</symbol>
<symbol id="robot" viewBox="0 0 33 32">
<path stroke-linejoin="round" stroke-linecap="round" stroke-miterlimit="4"  d="M26.904 25.392c2.138 0 3.207 0 3.871-0.665 0.665-0.664 0.665-1.733 0.665-3.871s0-3.207-0.665-3.871c-0.662-0.665-1.731-0.665-3.871-0.665M5.736 25.392c-2.138 0-3.207 0-3.871-0.665-0.665-0.662-0.665-1.731-0.665-3.871s0-3.207 0.665-3.871c0.662-0.665 1.731-0.665 3.871-0.665M16.32 5.736c0.602 0 1.178-0.239 1.604-0.664s0.664-1.002 0.664-1.604c0-0.602-0.239-1.178-0.664-1.604s-1.002-0.664-1.604-0.664c-0.602 0-1.178 0.239-1.604 0.664s-0.664 1.002-0.664 1.604c0 0.602 0.239 1.178 0.664 1.604s1.002 0.664 1.604 0.664zM16.32 5.736v4.536M11.784 17.832v1.512M20.856 17.832v1.512M26.904 22.368v-3.024c0-4.276 0-6.415-1.329-7.743-1.328-1.329-3.467-1.329-7.743-1.329h-3.024c-4.276 0-6.415 0-7.743 1.329-1.329 1.328-1.329 3.467-1.329 7.743v3.024c0 4.276 0 6.415 1.329 7.743 1.328 1.329 3.467 1.329 7.743 1.329h3.024c4.276 0 6.415 0 7.743-1.329 1.329-1.328 1.329-3.467 1.329-7.743z"></path>
<path stroke-linejoin="round" stroke-linecap="round" stroke-miterlimit="4"  d="M13.296 24.636c0 0 1.008 0.756 3.024 0.756s3.024-0.756 3.024-0.756"></path>
</symbol>
<symbol id="pocket-secure" viewBox="0 0 31 32">
<path stroke-linejoin="round" stroke-linecap="round" stroke-miterlimit="4"  d="M27.511 20.952v-7.896c0-0.662-0.263-1.297-0.731-1.765s-1.103-0.731-1.765-0.731h-19.346c-0.662 0-1.297 0.263-1.765 0.731s-0.731 1.103-0.731 1.765v14.478c0 0.662 0.263 1.297 0.731 1.765s1.103 0.731 1.765 0.731h15.394M3.172 15.076h24.338"></path>
<path stroke-linejoin="round" stroke-linecap="round" stroke-miterlimit="4"  d="M23.759 31.279c2.707-0.933 4.636-3.102 4.938-5.862 0.119-1.085 0.041-2.688-0.021-3.599-0.013-0.189-0.096-0.366-0.233-0.497s-0.317-0.206-0.506-0.211c-1.224-0.037-2.647-0.242-3.747-1.325-0.115-0.113-0.27-0.177-0.431-0.177s-0.316 0.063-0.431 0.177c-1.1 1.083-2.523 1.287-3.747 1.325-0.189 0.005-0.37 0.081-0.506 0.211s-0.22 0.308-0.233 0.497c-0.062 0.911-0.14 2.514-0.021 3.599 0.303 2.761 2.232 4.93 4.938 5.862zM23.759 31.279v-11.672"></path>
</symbol>
</defs>
</svg>
