<svg aria-hidden="true" style="position: absolute; width: 0; height: 0; overflow: hidden;" version="1.1" xmlns="http://www.w3.org/2000/svg" xmlns:xlink="http://www.w3.org/1999/xlink">
<defs>
<symbol id="arrow" viewBox="0 0 32 32">
<path d="M24 3.602v-3.264c0-0.283-0.259-0.439-0.434-0.266l-15.153 14.866c-0.129 0.126-0.233 0.287-0.305 0.471s-0.109 0.386-0.109 0.591c0 0.205 0.037 0.407 0.109 0.591s0.176 0.345 0.305 0.471l15.153 14.866c0.178 0.173 0.434 0.017 0.434-0.266v-3.264c0-0.207-0.077-0.405-0.205-0.532l-12.101-11.864 12.101-11.868c0.128-0.127 0.205-0.325 0.205-0.532z"></path>
</symbol>
<symbol id="arrow_r_b" viewBox="0 0 32 32">
<path d="M23.586 14.936l-15.153-14.864c-0.040-0.039-0.087-0.063-0.137-0.070s-0.101 0.004-0.146 0.032c-0.045 0.028-0.083 0.071-0.11 0.125s-0.041 0.116-0.040 0.179v3.263c0 0.207 0.077 0.405 0.205 0.532l12.101 11.867-12.101 11.867c-0.131 0.127-0.205 0.325-0.205 0.532v3.263c0 0.283 0.259 0.439 0.434 0.266l15.153-14.864c0.129-0.126 0.233-0.288 0.305-0.472s0.109-0.387 0.109-0.592-0.037-0.408-0.109-0.592c-0.072-0.184-0.176-0.346-0.305-0.472z"></path>
</symbol>
<symbol id="email" viewBox="0 0 32 32">
<path d="M27.071 6h-24.143c-0.514 0-0.929 0.406-0.929 0.909v18.182c0 0.503 0.415 0.909 0.929 0.909h24.143c0.514 0 0.929-0.406 0.929-0.909v-18.182c0-0.503-0.415-0.909-0.929-0.909zM25.911 9.148v14.807h-21.822v-14.807l-0.801-0.611 1.14-1.435 1.242 0.946h18.661l1.242-0.946 1.14 1.435-0.804 0.611zM24.332 8.045l-9.332 7.102-10.574-8.048-1.14 1.435 0.801 0.611 9.912 7.545c0.285 0.217 0.636 0.335 0.997 0.335s0.712-0.118 0.997-0.335l10.719-8.153-1.14-1.435-1.239 0.943z"></path>
</symbol>
<symbol id="heart" viewBox="0 0 32 32">
<path stroke-linejoin="round" stroke-linecap="round" stroke-miterlimit="4" stroke-width="2" d="M16 27c0 0-12.5-7-12.5-15.5 0-1.503 0.521-2.959 1.473-4.121s2.279-1.958 3.752-2.253c1.473-0.295 3.004-0.070 4.33 0.636s2.367 1.85 2.945 3.237c0.578-1.387 1.619-2.531 2.945-3.237s2.856-0.931 4.33-0.636 2.799 1.091 3.752 2.253c0.953 1.162 1.473 2.618 1.473 4.121 0 8.5-12.5 15.5-12.5 15.5z"></path>
</symbol>
<symbol id="user" viewBox="0 0 32 32">
<path stroke-linejoin="miter" stroke-linecap="round" stroke-miterlimit="4" stroke-width="1.8462" d="M16.558 15.111c2.945 0 5.333-2.388 5.333-5.333s-2.388-5.333-5.333-5.333-5.333 2.388-5.333 5.333c0 2.946 2.388 5.333 5.333 5.333z"></path>
<path stroke-linejoin="miter" stroke-linecap="round" stroke-miterlimit="4" stroke-width="1.8462" d="M5.782 22.886c0.953-3.474 4.57-5.108 8.194-5.108h4.936c3.623 0 7.241 1.634 8.195 5.108 0.208 0.754 0.355 1.523 0.44 2.301 0.089 0.815-0.587 1.48-1.411 1.48h-19.385c-0.823 0-1.499-0.667-1.411-1.479 0.085-0.778 0.233-1.548 0.441-2.302z"></path>
</symbol>
<symbol id="inst" viewBox="0 0 32 32">
<path d="M23.091 0.103c1.624 0.075 2.747 0.313 3.784 0.716 0.983 0.369 1.873 0.949 2.608 1.699 0.75 0.735 1.329 1.625 1.699 2.608 0.403 1.039 0.641 2.16 0.716 3.784 0.092 2.013 0.103 2.723 0.103 7.091s-0.011 5.077-0.103 7.091c-0.075 1.624-0.313 2.747-0.716 3.785-0.369 0.982-0.949 1.872-1.699 2.607-0.735 0.75-1.625 1.329-2.608 1.699-1.039 0.403-2.16 0.641-3.784 0.716-2.013 0.092-2.721 0.103-7.091 0.103s-5.079-0.011-7.091-0.103c-1.624-0.075-2.747-0.313-3.785-0.716-0.982-0.369-1.872-0.949-2.607-1.699-0.75-0.735-1.329-1.625-1.699-2.608-0.403-1.039-0.641-2.16-0.716-3.784-0.092-2.011-0.103-2.72-0.103-7.091s0.011-5.080 0.103-7.091c0.075-1.624 0.313-2.747 0.716-3.784 0.369-0.983 0.949-1.873 1.699-2.608 0.735-0.749 1.624-1.329 2.607-1.699 1.040-0.403 2.161-0.641 3.785-0.716 2.011-0.092 2.72-0.103 7.091-0.103s5.080 0.011 7.091 0.103zM16 3.556c-4.32 0-4.981 0.009-6.929 0.099-1.236 0.056-1.977 0.213-2.659 0.479-0.58 0.227-0.949 0.467-1.381 0.897s-0.671 0.801-0.897 1.383c-0.264 0.68-0.423 1.423-0.479 2.659-0.089 1.947-0.099 2.608-0.099 6.928s0.009 4.981 0.099 6.929c0.056 1.236 0.213 1.977 0.479 2.657 0.227 0.581 0.467 0.951 0.897 1.383s0.801 0.672 1.381 0.897c0.68 0.264 1.423 0.423 2.659 0.479 1.949 0.089 2.611 0.099 6.929 0.099 4.32 0 4.98-0.009 6.929-0.099 1.236-0.056 1.977-0.213 2.659-0.479 0.58-0.227 0.949-0.467 1.381-0.897s0.672-0.801 0.897-1.381c0.264-0.68 0.423-1.423 0.479-2.659 0.089-1.949 0.099-2.611 0.099-6.929s-0.009-4.98-0.099-6.929c-0.056-1.236-0.213-1.977-0.479-2.657-0.188-0.524-0.495-0.997-0.897-1.383-0.385-0.402-0.858-0.709-1.383-0.897-0.68-0.264-1.423-0.423-2.659-0.479-1.948-0.089-2.609-0.099-6.929-0.099zM15.999 24.296c-2.2 0-4.31-0.874-5.866-2.43s-2.43-3.666-2.43-5.866c0-2.2 0.874-4.31 2.43-5.866s3.666-2.43 5.866-2.43c2.2 0 4.31 0.874 5.866 2.43s2.43 3.666 2.43 5.866c0 2.2-0.874 4.31-2.43 5.866s-3.666 2.43-5.866 2.43zM15.999 20.741c1.257 0 2.463-0.5 3.353-1.389s1.389-2.095 1.389-3.353-0.5-2.463-1.389-3.353c-0.889-0.889-2.095-1.389-3.353-1.389s-2.463 0.5-3.353 1.389c-0.889 0.889-1.389 2.095-1.389 3.353s0.5 2.463 1.389 3.353c0.889 0.889 2.095 1.389 3.353 1.389zM24.295 9.481c-0.472 0-0.924-0.187-1.257-0.521s-0.521-0.786-0.521-1.257 0.187-0.924 0.521-1.257c0.333-0.333 0.786-0.521 1.257-0.521s0.924 0.187 1.257 0.521c0.334 0.333 0.521 0.786 0.521 1.257s-0.187 0.924-0.521 1.257c-0.333 0.333-0.786 0.521-1.257 0.521z"></path>
</symbol>
<symbol id="menuOutlined" viewBox="0 0 32 32">
<path d="M31.68 5.333h-31.36c-0.176 0-0.32 0.109-0.32 0.242v1.939c0 0.133 0.144 0.242 0.32 0.242h31.36c0.176 0 0.32-0.109 0.32-0.242v-1.939c0-0.133-0.144-0.242-0.32-0.242zM31.68 24.242h-31.36c-0.176 0-0.32 0.109-0.32 0.242v1.939c0 0.133 0.144 0.242 0.32 0.242h31.36c0.176 0 0.32-0.109 0.32-0.242v-1.939c0-0.133-0.144-0.242-0.32-0.242zM31.68 14.788h-31.36c-0.176 0-0.32 0.109-0.32 0.242v1.939c0 0.133 0.144 0.242 0.32 0.242h31.36c0.176 0 0.32-0.109 0.32-0.242v-1.939c0-0.133-0.144-0.242-0.32-0.242z"></path>
</symbol>
<symbol id="rocket" viewBox="0 0 32 32">
<path d="M8.224 20.337c0.26-0.26 0.26-0.683 0-0.943s-0.682-0.26-0.943 0l0.943 0.943zM5.563 21.113c-0.26 0.26-0.26 0.683 0 0.943s0.682 0.26 0.943 0l-0.943-0.943zM9.915 22.028c0.26-0.26 0.26-0.683 0-0.943s-0.682-0.26-0.943 0l0.943 0.943zM4.979 25.078c-0.26 0.26-0.26 0.682 0 0.943s0.682 0.26 0.943 0l-0.943-0.943zM11.606 23.718c0.26-0.26 0.26-0.683 0-0.943s-0.682-0.26-0.943 0l0.943 0.943zM8.864 24.574c-0.26 0.26-0.26 0.682 0 0.943s0.682 0.26 0.943 0l-0.943-0.943zM18.708 10.101v0zM25.839 5.161l0.646-0.164c-0.060-0.238-0.247-0.424-0.486-0.483l-0.161 0.647zM9.016 18.295l-0.588-0.314c-0.138 0.259-0.091 0.578 0.117 0.786l0.471-0.471zM12.713 21.992l-0.471 0.471c0.208 0.208 0.527 0.255 0.786 0.116l-0.315-0.588zM11.003 12.286c0.365-0.045 0.626-0.377 0.581-0.743s-0.377-0.626-0.743-0.581l0.162 1.323zM4 16.384l-0.553-0.372c-0.167 0.248-0.148 0.576 0.046 0.804s0.515 0.299 0.786 0.174l-0.279-0.606zM7.851 16.848c0.362 0.067 0.71-0.171 0.778-0.533s-0.171-0.71-0.533-0.777l-0.244 1.311zM20.046 20.157c0.044-0.366-0.217-0.697-0.583-0.741s-0.697 0.217-0.741 0.583l1.324 0.159zM14.628 27l-0.607-0.277c-0.124 0.271-0.052 0.592 0.175 0.785s0.556 0.211 0.803 0.045l-0.372-0.553zM15.475 22.906c-0.067-0.362-0.415-0.601-0.777-0.534s-0.601 0.415-0.534 0.777l1.311-0.243zM7.282 19.394l-1.719 1.719 0.943 0.943 1.719-1.719-0.943-0.943zM8.972 21.085l-3.993 3.993 0.943 0.943 3.993-3.993-0.943-0.943zM10.663 22.776l-1.799 1.799 0.943 0.943 1.799-1.799-0.943-0.943zM18.708 10.768c0.301 0 0.596 0.089 0.846 0.257l0.741-1.109c-0.47-0.314-1.022-0.481-1.587-0.481v1.333zM19.555 11.025c0.251 0.167 0.446 0.405 0.561 0.684l1.232-0.51c-0.216-0.522-0.582-0.968-1.052-1.282l-0.741 1.109zM20.116 11.709c0.115 0.278 0.145 0.585 0.087 0.88l1.308 0.26c0.11-0.554 0.054-1.129-0.163-1.651l-1.232 0.51zM20.203 12.589c-0.059 0.296-0.204 0.567-0.417 0.78l0.943 0.943c0.4-0.399 0.672-0.909 0.782-1.463l-1.308-0.26zM19.786 13.369c-0.213 0.213-0.485 0.358-0.78 0.417l0.26 1.308c0.554-0.11 1.063-0.382 1.463-0.782l-0.943-0.943zM19.006 13.786c-0.295 0.059-0.602 0.029-0.88-0.087l-0.51 1.232c0.522 0.216 1.097 0.273 1.651 0.163l-0.26-1.308zM18.125 13.699c-0.278-0.115-0.516-0.311-0.684-0.561l-1.109 0.741c0.314 0.47 0.76 0.836 1.282 1.052l0.51-1.232zM17.442 13.138c-0.167-0.251-0.257-0.545-0.257-0.846h-1.333c0 0.565 0.168 1.117 0.481 1.587l1.109-0.741zM17.185 12.292c0-0.404 0.161-0.792 0.446-1.077l-0.943-0.943c-0.536 0.536-0.837 1.262-0.837 2.020h1.333zM17.631 11.214c0.286-0.286 0.673-0.446 1.077-0.446v-1.333c-0.758 0-1.484 0.301-2.020 0.837l0.943 0.943zM19.752 6.488l4.76 4.76 0.943-0.943-4.76-4.76-0.943 0.943zM25.999 4.514c-0.737-0.183-3.147-0.574-6.387 0.995-3.233 1.566-7.219 5.049-11.185 12.472l1.176 0.628c3.876-7.254 7.682-10.491 10.59-11.9 2.902-1.406 4.982-1.025 5.484-0.901l0.321-1.294zM8.545 18.766l3.697 3.697 0.943-0.943-3.697-3.697-0.943 0.943zM13.028 22.58c7.447-3.984 10.927-7.983 12.485-11.219 1.561-3.243 1.154-5.647 0.973-6.364l-1.293 0.327c0.122 0.482 0.515 2.555-0.882 5.458-1.4 2.91-4.635 6.728-11.912 10.621l0.629 1.176zM10.842 10.962c-1.907 0.233-4.826 1.228-7.395 5.050l1.107 0.744c2.331-3.469 4.888-4.28 6.45-4.47l-0.162-1.323zM4 16.384c0.279 0.606 0.278 0.606 0.278 0.606s-0 0-0 0-0.001 0-0.001 0-0.001 0.001-0.001 0.001-0.001 0.001-0.001 0.001 0.001-0 0.003-0.001 0.015-0.006 0.031-0.013c0.031-0.012 0.084-0.031 0.156-0.054 0.146-0.046 0.373-0.106 0.677-0.154 0.607-0.096 1.523-0.143 2.709 0.078l0.244-1.311c-1.344-0.251-2.414-0.202-3.161-0.084-0.373 0.059-0.664 0.135-0.868 0.199-0.102 0.032-0.182 0.061-0.24 0.083-0.029 0.011-0.052 0.021-0.069 0.028-0.009 0.004-0.016 0.007-0.022 0.009-0.003 0.001-0.005 0.002-0.008 0.003-0.001 0.001-0.002 0.001-0.003 0.001s-0.001 0-0.001 0.001-0.001 0-0.001 0-0.001 0 0.278 0.606zM18.722 19.998c-0.187 1.561-0.997 4.117-4.466 6.449l0.744 1.107c3.821-2.569 4.818-5.488 5.046-7.397l-1.324-0.159zM14.628 27c0.607 0.277 0.607 0.276 0.607 0.276s0-0 0-0.001 0-0.001 0.001-0.001 0.001-0.002 0.001-0.003 0.002-0.005 0.003-0.008 0.006-0.013 0.009-0.022c0.007-0.017 0.017-0.041 0.028-0.069 0.022-0.057 0.051-0.138 0.083-0.24 0.063-0.204 0.139-0.495 0.198-0.868 0.117-0.747 0.166-1.816-0.083-3.159l-1.311 0.243c0.219 1.184 0.172 2.101 0.076 2.709-0.048 0.305-0.108 0.533-0.153 0.679-0.023 0.073-0.042 0.126-0.054 0.157-0.006 0.016-0.010 0.026-0.012 0.031-0.001 0.003-0.002 0.004-0.001 0.003s0-0.001 0.001-0.001 0-0.001 0.001-0.001 0-0.001 0-0.001 0-0 0-0.001 0-0.001 0.607 0.276z"></path>
</symbol>
<symbol id="search" viewBox="0 0 32 32">
<path d="M28.425 26.703l-8.116-8.116c1.259-1.628 1.941-3.619 1.941-5.712 0-2.506-0.978-4.856-2.747-6.628s-4.125-2.747-6.628-2.747-4.859 0.978-6.628 2.747c-1.772 1.769-2.747 4.122-2.747 6.628 0 2.503 0.978 4.859 2.747 6.628 1.769 1.772 4.122 2.747 6.628 2.747 2.094 0 4.081-0.681 5.709-1.937l8.116 8.112c0.024 0.024 0.052 0.043 0.083 0.056s0.064 0.020 0.098 0.020c0.034 0 0.067-0.007 0.098-0.020s0.059-0.032 0.083-0.056l1.362-1.359c0.024-0.024 0.043-0.052 0.056-0.083s0.020-0.065 0.020-0.098c0-0.034-0.007-0.067-0.020-0.098s-0.032-0.059-0.056-0.083zM17.825 17.825c-1.325 1.322-3.081 2.050-4.95 2.050s-3.625-0.728-4.95-2.050c-1.322-1.325-2.050-3.081-2.050-4.95s0.728-3.628 2.050-4.95c1.325-1.322 3.081-2.050 4.95-2.050s3.628 0.725 4.95 2.050c1.322 1.325 2.050 3.081 2.050 4.95s-0.728 3.628-2.050 4.95z"></path>
</symbol>
<symbol id="shopping-cart" viewBox="0 0 32 32">
<path stroke-linejoin="round" stroke-linecap="round" stroke-miterlimit="4" stroke-width="2" d="M26.1 27h-20.2c-0.246-0.001-0.483-0.092-0.667-0.255s-0.302-0.388-0.333-0.632l-1.775-16c-0.016-0.139-0.002-0.281 0.040-0.414s0.112-0.257 0.205-0.362c0.093-0.105 0.207-0.189 0.335-0.247s0.266-0.088 0.407-0.089h23.775c0.14 0.001 0.279 0.031 0.407 0.089s0.242 0.142 0.335 0.247 0.163 0.228 0.205 0.362c0.042 0.134 0.056 0.275 0.040 0.414l-1.775 16c-0.030 0.244-0.149 0.469-0.333 0.632s-0.421 0.254-0.667 0.255v0z"></path>
<path stroke-linejoin="round" stroke-linecap="round" stroke-miterlimit="4" stroke-width="2" d="M11 13v-4c0-1.326 0.527-2.598 1.464-3.536s2.209-1.464 3.536-1.464c1.326 0 2.598 0.527 3.536 1.464s1.464 2.209 1.464 3.536v4"></path>
</symbol>
<symbol id="tictok" viewBox="0 0 32 32">
<path d="M21.754 0c0.528 4.541 3.062 7.249 7.468 7.537v5.108c-2.553 0.25-4.79-0.586-7.391-2.16v9.553c0 12.136-13.228 15.928-18.546 7.229-3.417-5.597-1.325-15.419 9.638-15.813v5.386c-0.835 0.134-1.728 0.346-2.544 0.624-2.438 0.826-3.82 2.371-3.437 5.098 0.739 5.223 10.319 6.769 9.522-3.437v-19.116h5.289v-0.010z"></path>
</symbol>
<symbol id="pinterest" viewBox="0 0 32 32">
<path d="M25.314 3.279c-2.203-2.115-5.251-3.279-8.583-3.279-5.090 0-8.221 2.087-9.951 3.837-2.132 2.157-3.355 5.021-3.355 7.858 0 3.562 1.49 6.296 3.985 7.313 0.168 0.069 0.336 0.103 0.501 0.103 0.526 0 0.943-0.344 1.088-0.897 0.084-0.317 0.279-1.099 0.364-1.438 0.182-0.67 0.035-0.993-0.361-1.46-0.722-0.854-1.058-1.864-1.058-3.178 0-3.903 2.906-8.051 8.293-8.051 4.274 0 6.929 2.429 6.929 6.34 0 2.468-0.532 4.753-1.497 6.435-0.671 1.169-1.851 2.562-3.662 2.562-0.783 0-1.487-0.322-1.93-0.883-0.419-0.53-0.558-1.215-0.389-1.929 0.191-0.806 0.45-1.648 0.702-2.461 0.459-1.485 0.892-2.888 0.892-4.008 0-1.915-1.177-3.201-2.929-3.201-2.226 0-3.97 2.261-3.97 5.147 0 1.415 0.376 2.474 0.546 2.881-0.28 1.188-1.947 8.252-2.263 9.584-0.183 0.778-1.284 6.919 0.539 7.409 2.048 0.55 3.878-5.431 4.064-6.107 0.151-0.55 0.679-2.628 1.003-3.906 0.989 0.952 2.58 1.596 4.129 1.596 2.92 0 5.546-1.314 7.394-3.699 1.792-2.314 2.78-5.539 2.78-9.080-0-2.769-1.189-5.498-3.262-7.488z"></path>
</symbol>
<symbol id="youtube" viewBox="0 0 32 32">
<path d="M30.063 10.717c0.225 1.574 0.337 3.125 0.337 4.654v2.158l-0.337 4.654c-0.18 1.304-0.562 2.248-1.147 2.833-0.629 0.629-1.574 1.034-2.833 1.214-1.214 0.090-2.675 0.157-4.384 0.202-1.664 0.045-3.035 0.068-4.114 0.068h-1.619c-4.991-0.045-8.251-0.135-9.78-0.27 0 0-0.18-0.022-0.54-0.067s-0.652-0.090-0.877-0.135c-0.225-0.045-0.517-0.157-0.877-0.337-0.315-0.18-0.607-0.405-0.877-0.674-0.225-0.27-0.45-0.63-0.674-1.079-0.18-0.495-0.292-0.922-0.337-1.281l-0.135-0.472c-0.18-1.574-0.27-3.125-0.27-4.654v-2.158l0.27-4.654c0.18-1.304 0.562-2.248 1.147-2.833 0.63-0.674 1.596-1.079 2.9-1.214 1.214-0.090 2.653-0.157 4.317-0.202s3.035-0.067 4.114-0.067h1.619c4.047 0 7.419 0.090 10.117 0.27 1.259 0.135 2.203 0.54 2.833 1.214 0.18 0.18 0.337 0.405 0.472 0.674 0.135 0.225 0.247 0.472 0.337 0.742 0.090 0.225 0.157 0.45 0.202 0.674s0.090 0.405 0.135 0.54v0.202zM19.878 16.652l0.944-0.472-7.756-4.047v8.094l6.812-3.575z"></path>
</symbol>
<symbol id="upOutlined" viewBox="0 0 46 32">
<path d="M6.25 24h3.348c0.228 0 0.442-0.078 0.576-0.206l12.683-12.238 12.683 12.238c0.134 0.128 0.348 0.206 0.576 0.206h3.348c0.29 0 0.46-0.231 0.29-0.397l-15.741-15.191c-0.571-0.55-1.741-0.55-2.308 0l-15.741 15.191c-0.174 0.166-0.004 0.397 0.286 0.397z"></path>
</symbol>
<symbol id="downOutlined" viewBox="0 0 46 32">
<path d="M39.464 8h-3.348c-0.228 0-0.442 0.078-0.576 0.206l-12.683 12.238-12.683-12.238c-0.134-0.128-0.348-0.206-0.576-0.206h-3.348c-0.29 0-0.46 0.231-0.29 0.397l15.741 15.191c0.571 0.55 1.741 0.55 2.308 0l15.741-15.191c0.174-0.166 0.005-0.397-0.286-0.397z"></path>
</symbol>
<symbol id="phone" viewBox="0 0 32 32">
<path d="M1.221 6.434l3.727-3.724c0.455-0.455 1.064-0.71 1.708-0.71s1.253 0.252 1.708 0.71l4.014 4.007c0.455 0.455 0.71 1.067 0.71 1.711 0 0.647-0.252 1.253-0.71 1.711l-3.136 3.139c0.714 1.664 1.741 3.177 3.024 4.455 1.284 1.291 2.786 2.31 4.451 3.031l3.136-3.139c0.455-0.455 1.064-0.71 1.708-0.71 0.318-0.001 0.632 0.061 0.926 0.183s0.559 0.301 0.782 0.527l4.018 4.007c0.455 0.455 0.71 1.067 0.71 1.711 0 0.647-0.252 1.253-0.71 1.711l-3.724 3.723c-0.777 0.777-1.848 1.221-2.947 1.221-0.228 0-0.448-0.017-0.672-0.056-4.633-0.763-9.232-3.23-12.945-6.94-3.71-3.717-6.173-8.315-6.943-12.952-0.22-1.316 0.22-2.67 1.165-3.619zM2.537 9.636c0.682 4.126 2.901 8.241 6.243 11.584s7.454 5.561 11.58 6.243c0.518 0.088 1.050-0.087 1.428-0.462l3.657-3.657-3.878-3.881-4.224 4.231-0.756-0.28c-2.292-0.843-4.373-2.174-6.1-3.901s-3.057-3.809-3.899-6.101l-0.28-0.756 4.227-4.224-3.878-3.881-3.657 3.657c-0.378 0.378-0.553 0.91-0.465 1.428z"></path>
</symbol>
<symbol id="twitter" viewBox="0 0 32 32">
<path d="M32 7.075c-1.175 0.525-2.444 0.875-3.769 1.031 1.356-0.813 2.394-2.1 2.887-3.631-1.269 0.75-2.675 1.3-4.169 1.594-1.2-1.275-2.906-2.069-4.794-2.069-3.625 0-6.563 2.938-6.563 6.563 0 0.512 0.056 1.012 0.169 1.494-5.456-0.275-10.294-2.888-13.531-6.862-0.563 0.969-0.887 2.1-0.887 3.3 0 2.275 1.156 4.287 2.919 5.463-1.075-0.031-2.087-0.331-2.975-0.819 0 0.025 0 0.056 0 0.081 0 3.181 2.263 5.838 5.269 6.437-0.55 0.15-1.131 0.231-1.731 0.231-0.425 0-0.831-0.044-1.237-0.119 0.838 2.606 3.263 4.506 6.131 4.563-2.25 1.762-5.075 2.813-8.156 2.813-0.531 0-1.050-0.031-1.569-0.094 2.913 1.869 6.362 2.95 10.069 2.95 12.075 0 18.681-10.006 18.681-18.681 0-0.287-0.006-0.569-0.019-0.85 1.281-0.919 2.394-2.075 3.275-3.394z"></path>
</symbol>
</defs>
</svg>
